<svg width="1124" height="121" viewBox="0 0 1124 121" fill="none" xmlns="http://www.w3.org/2000/svg">
<path d="M0 2.5H1124V90.5C1124 99.3366 1116.84 106.5 1108 106.5H16C7.16347 106.5 0 99.3366 0 90.5V2.5Z" fill="url(#paint0_linear_1_1456)"/>
<path d="M502.047 52.7305L503.957 50.832L505.867 52.7422L503.957 54.6523L502.047 52.7305ZM498.098 52.7305L500.008 50.832L501.918 52.7305L500.008 54.6523L498.098 52.7305ZM502.855 63.5H501.156C499.266 63.5 497.633 63.2773 496.258 62.832C494.891 62.3867 493.836 61.7109 493.094 60.8047C492.359 59.8906 491.992 58.7422 491.992 57.3594C491.992 56.7109 492.074 56.0898 492.238 55.4961C492.41 54.8945 492.609 54.3242 492.836 53.7852L495.484 54.7812C495.359 55.125 495.242 55.5117 495.133 55.9414C495.031 56.3711 494.98 56.7852 494.98 57.1836C494.988 58.2695 495.465 59.0859 496.41 59.6328C497.355 60.1797 498.898 60.4531 501.039 60.4531H502.797C504.297 60.4531 505.504 60.332 506.418 60.0898C507.332 59.8477 507.957 59.5234 508.293 59.1172C508.379 59.0078 508.449 58.8633 508.504 58.6836C508.566 58.5039 508.598 58.2656 508.598 57.9688C508.598 57.5938 508.586 57.2188 508.562 56.8438C508.539 56.4609 508.516 56.0898 508.492 55.7305L511.305 55.3789L511.527 58.7773C511.566 59.3867 511.711 59.8203 511.961 60.0781C512.219 60.3281 512.652 60.4531 513.262 60.4531H513.555V63.5H513.262C511.668 63.5 510.473 62.8867 509.676 61.6602C508.918 62.3008 507.957 62.7695 506.793 63.0664C505.637 63.3555 504.324 63.5 502.855 63.5ZM518.02 49.6836L520.059 47.6562L522.098 49.6836L520.059 51.7227L518.02 49.6836ZM513.086 63.5V60.4531H514.996C515.887 60.4531 516.719 60.3633 517.492 60.1836C518.273 60.0039 519.062 59.7422 519.859 59.3984C520.656 59.0547 521.531 58.6406 522.484 58.1562L523.316 57.7227C523.184 57.6758 523.031 57.6172 522.859 57.5469C522.695 57.4688 522.438 57.3594 522.086 57.2188C521.297 56.8984 520.648 56.6523 520.141 56.4805C519.641 56.3008 519.301 56.2109 519.121 56.2109C518.777 56.2109 518.426 56.3203 518.066 56.5391C517.707 56.7578 517.398 57.0352 517.141 57.3711L516.578 58.0859L514.023 56.8086L514.445 56.0586C514.961 55.1914 515.625 54.4961 516.438 53.9727C517.25 53.4492 518.148 53.1875 519.133 53.1875C519.695 53.1875 520.285 53.3008 520.902 53.5273C521.527 53.7461 522.188 54.0234 522.883 54.3594C523.781 54.7969 524.531 55.1367 525.133 55.3789C525.734 55.6133 526.281 55.7852 526.773 55.8945C527.273 55.9961 527.816 56.0625 528.402 56.0938L528.355 58.9531C527.902 59.0078 527.488 59.0898 527.113 59.1992C526.738 59.3008 526.289 59.4766 525.766 59.7266C525.242 59.9766 524.531 60.3398 523.633 60.8164C522.672 61.3242 521.734 61.7812 520.82 62.1875C519.914 62.5859 518.984 62.9062 518.031 63.1484C517.078 63.3828 516.055 63.5 514.961 63.5H513.086ZM535.363 63.5H535.07C533.531 63.5 532.336 63.082 531.484 62.2461C530.641 61.4023 530.219 60.082 530.219 58.2852V47.2578H533.137V58.2969C533.137 59.1797 533.289 59.7617 533.594 60.043C533.906 60.3164 534.398 60.4531 535.07 60.4531H535.363V63.5ZM548.652 60.4531C548.988 60.4531 549.266 60.3086 549.484 60.0195C549.703 59.7227 549.812 59.1562 549.812 58.3203C549.812 57.9062 549.746 57.3789 549.613 56.7383C549.488 56.0898 549.348 55.4727 549.191 54.8867L552.004 54.1836C552.199 54.8242 552.375 55.4844 552.531 56.1641C552.688 56.8359 552.766 57.4961 552.766 58.1445C552.766 59.0664 552.637 59.9336 552.379 60.7461C552.121 61.5586 551.691 62.2188 551.09 62.7266C550.488 63.2344 549.68 63.4922 548.664 63.5C547.383 63.5 546.414 63.043 545.758 62.1289C544.914 63.043 543.859 63.5 542.594 63.5C541.164 63.5 540.121 63.0469 539.465 62.1406C539.051 62.6094 538.527 62.9531 537.895 63.1719C537.262 63.3906 536.535 63.5 535.715 63.5H534.906V60.4531H535.738C536.621 60.4531 537.234 60.3203 537.578 60.0547C537.93 59.7891 538.105 59.2617 538.105 58.4727C538.105 58.293 538.086 57.9414 538.047 57.418C538.016 56.8867 537.984 56.4062 537.953 55.9766L540.824 55.625L541.047 58.7656C541.125 59.8906 541.648 60.4531 542.617 60.4531C543.25 60.4531 543.691 60.3008 543.941 59.9961C544.191 59.6914 544.316 59.1836 544.316 58.4727C544.316 58.3633 544.309 58.168 544.293 57.8867C544.277 57.5977 544.258 57.2812 544.234 56.9375C544.211 56.5859 544.188 56.2656 544.164 55.9766L547.035 55.625L547.258 58.7656C547.336 59.8906 547.801 60.4531 548.652 60.4531ZM566.242 56.2695C566.609 57.1133 566.895 58.0039 567.098 58.9414C567.309 59.8711 567.414 60.793 567.414 61.707C567.414 62.9883 567.156 64.1836 566.641 65.293C566.133 66.4023 565.352 67.3594 564.297 68.1641C563.242 68.9688 561.895 69.5547 560.254 69.9219L558.977 67.332C560.875 66.8633 562.273 66.1719 563.172 65.2578C564.078 64.3516 564.531 63.2305 564.531 61.8945C564.531 61.1914 564.43 60.4297 564.227 59.6094C564.031 58.7891 563.777 58.0078 563.465 57.2656L566.242 56.2695ZM568.773 60.0312C569.266 60.1328 569.793 60.2266 570.355 60.3125C570.918 60.3984 571.402 60.4414 571.809 60.4414C573.27 60.4414 574.281 60.2852 574.844 59.9727C575.414 59.6523 575.699 59.25 575.699 58.7656C575.699 58.1484 575.246 57.3828 574.34 56.4688C573.441 55.5547 572.215 54.6055 570.66 53.6211L572.324 51.1133C574.277 52.2773 575.828 53.4883 576.977 54.7461C578.125 56.0039 578.699 57.332 578.699 58.7305C578.699 60.332 578.109 61.5234 576.93 62.3047C575.758 63.0859 574.102 63.4766 571.961 63.4766C571.375 63.4766 570.816 63.4414 570.285 63.3711C569.762 63.3008 569.258 63.2148 568.773 63.1133V60.0312ZM596.453 52.7305L598.363 50.832L600.273 52.7422L598.363 54.6523L596.453 52.7305ZM592.504 52.7305L594.414 50.832L596.324 52.7305L594.414 54.6523L592.504 52.7305ZM597.262 63.5H595.562C593.672 63.5 592.039 63.2773 590.664 62.832C589.297 62.3867 588.242 61.7109 587.5 60.8047C586.766 59.8906 586.398 58.7422 586.398 57.3594C586.398 56.7109 586.48 56.0898 586.645 55.4961C586.816 54.8945 587.016 54.3242 587.242 53.7852L589.891 54.7812C589.766 55.125 589.648 55.5117 589.539 55.9414C589.438 56.3711 589.387 56.7852 589.387 57.1836C589.395 58.2695 589.871 59.0859 590.816 59.6328C591.762 60.1797 593.305 60.4531 595.445 60.4531H597.203C598.703 60.4531 599.91 60.332 600.824 60.0898C601.738 59.8477 602.363 59.5234 602.699 59.1172C602.785 59.0078 602.855 58.8633 602.91 58.6836C602.973 58.5039 603.004 58.2656 603.004 57.9688C603.004 57.5938 602.992 57.2188 602.969 56.8438C602.945 56.4609 602.922 56.0898 602.898 55.7305L605.711 55.3789L605.934 58.7773C605.973 59.3867 606.117 59.8203 606.367 60.0781C606.625 60.3281 607.059 60.4531 607.668 60.4531H607.961V63.5H607.668C606.074 63.5 604.879 62.8867 604.082 61.6602C603.324 62.3008 602.363 62.7695 601.199 63.0664C600.043 63.3555 598.73 63.5 597.262 63.5ZM616.715 58.8594C616.707 60.4453 616.113 61.6172 614.934 62.375C613.762 63.125 612.008 63.5 609.672 63.5H607.492V60.4531H609.66C610.754 60.4531 611.594 60.3906 612.18 60.2656C612.766 60.1328 613.168 59.9453 613.387 59.7031C613.605 59.4609 613.715 59.168 613.715 58.8242C613.715 58.4023 613.461 57.9023 612.953 57.3242C612.445 56.7383 611.793 56.1016 610.996 55.4141C610.199 54.7188 609.371 54 608.512 53.2578C608.254 53.0391 608.062 52.7734 607.938 52.4609C607.812 52.1484 607.75 51.832 607.75 51.5117C607.75 51.0195 607.879 50.5781 608.137 50.1875C608.402 49.7969 608.781 49.5078 609.273 49.3203L618.145 46.0156V49.0742L611.195 51.6523C611.766 52.1055 612.367 52.5977 613 53.1289C613.641 53.6523 614.242 54.2148 614.805 54.8164C615.367 55.418 615.824 56.0547 616.176 56.7266C616.535 57.3984 616.715 58.1094 616.715 58.8594ZM622.75 56.2695C623.117 57.1133 623.402 58.0039 623.605 58.9414C623.816 59.8711 623.922 60.793 623.922 61.707C623.922 62.9883 623.664 64.1836 623.148 65.293C622.641 66.4023 621.859 67.3594 620.805 68.1641C619.75 68.9688 618.402 69.5547 616.762 69.9219L615.484 67.332C617.383 66.8633 618.781 66.1719 619.68 65.2578C620.586 64.3516 621.039 63.2305 621.039 61.8945C621.039 61.1914 620.938 60.4297 620.734 59.6094C620.539 58.7891 620.285 58.0078 619.973 57.2656L622.75 56.2695ZM631.012 63.5H630.719C629.18 63.5 627.984 63.082 627.133 62.2461C626.289 61.4023 625.867 60.082 625.867 58.2852V47.2578H628.785V58.2969C628.785 59.1797 628.938 59.7617 629.242 60.043C629.555 60.3164 630.047 60.4531 630.719 60.4531H631.012V63.5ZM638.945 48.9219L640.75 47.1289L642.566 48.9219L640.75 50.7383L638.945 48.9219ZM640.961 51.9922L642.766 50.1992L644.582 51.9922L642.766 53.8086L640.961 51.9922ZM636.977 51.9922L638.781 50.1992L640.598 51.9922L638.781 53.8086L636.977 51.9922ZM644.301 60.4531C644.66 60.4531 644.941 60.3203 645.145 60.0547C645.355 59.7812 645.461 59.2617 645.461 58.4961C645.461 58.2383 645.445 57.8359 645.414 57.2891C645.383 56.7344 645.348 56.2148 645.309 55.7305L648.18 55.3789L648.402 58.7656C648.441 59.3828 648.594 59.8203 648.859 60.0781C649.125 60.3281 649.539 60.4531 650.102 60.4531H650.453V63.5H650.125C649.461 63.5 648.863 63.3984 648.332 63.1953C647.801 62.9844 647.379 62.6562 647.066 62.2109C646.418 63.0703 645.5 63.5 644.312 63.5C643.039 63.5 642.074 63.043 641.418 62.1289C640.574 63.043 639.516 63.5 638.242 63.5C637.547 63.4922 636.934 63.3828 636.402 63.1719C635.871 62.9531 635.441 62.6133 635.113 62.1523C634.699 62.6211 634.176 62.9648 633.543 63.1836C632.918 63.3945 632.191 63.5 631.363 63.5H630.555V60.4531H631.387C632.27 60.4531 632.883 60.3203 633.227 60.0547C633.578 59.7891 633.754 59.2617 633.754 58.4727C633.754 58.293 633.738 57.9414 633.707 57.418C633.676 56.8945 633.641 56.4141 633.602 55.9766L636.473 55.625L636.695 58.7656C636.734 59.3125 636.879 59.7305 637.129 60.0195C637.379 60.3086 637.758 60.4531 638.266 60.4531C638.906 60.4531 639.348 60.3047 639.59 60.0078C639.84 59.7031 639.965 59.1914 639.965 58.4727C639.965 58.3633 639.957 58.168 639.941 57.8867C639.926 57.5977 639.906 57.2812 639.883 56.9375C639.859 56.5859 639.836 56.2656 639.812 55.9766L642.684 55.625L642.906 58.7656C642.984 59.8906 643.449 60.4531 644.301 60.4531ZM653.793 62C653.316 62.4766 652.801 62.8477 652.246 63.1133C651.699 63.3711 651.113 63.5 650.488 63.5H649.996V60.4531H650.43C650.961 60.4531 651.406 60.2227 651.766 59.7617C652.133 59.3008 652.473 58.7461 652.785 58.0977C653.363 56.9258 654.008 56.0195 654.719 55.3789C655.438 54.7383 656.27 54.418 657.215 54.418C658.152 54.418 658.965 54.6523 659.652 55.1211C660.348 55.582 660.883 56.1953 661.258 56.9609C661.633 57.7188 661.82 58.543 661.82 59.4336C661.82 60.7461 661.477 61.7969 660.789 62.5859C660.109 63.3672 659.141 63.7578 657.883 63.7578C657.117 63.7578 656.402 63.6055 655.738 63.3008C655.082 62.9961 654.434 62.5625 653.793 62ZM655.363 59.4336C655.785 59.8867 656.215 60.2266 656.652 60.4531C657.098 60.6719 657.488 60.7812 657.824 60.7812C658.582 60.7812 658.961 60.3906 658.961 59.6094C658.961 58.9219 658.801 58.3945 658.48 58.0273C658.16 57.6523 657.754 57.4648 657.262 57.4648C656.926 57.4648 656.594 57.6484 656.266 58.0156C655.945 58.3828 655.645 58.8555 655.363 59.4336Z" fill="#F4F7FB"/>
<path d="M468.671 52.2496L466.021 58.0797H405.411L402.761 52.2496L428.571 34.3896H442.861L468.671 52.2496Z" fill="#EBEBEB" fill-opacity="0.47"/>
<g filter="url(#filter0_f_1_1456)">
<path d="M411 83.5L433 27.5L460 83.5H411Z" fill="white" fill-opacity="0.49"/>
</g>
<g filter="url(#filter1_f_1_1456)">
<path d="M347 95.5L363.612 52.5L384 95.5H347Z" fill="white"/>
</g>
<path d="M436 2.5H435V20.5H436V2.5Z" fill="#F4F7FB"/>
<path d="M444.65 17.1797L442.86 34.3897H428.57L426.78 17.1797H444.65Z" fill="url(#paint1_linear_1_1456)"/>
<path d="M468.661 52.25L466.011 58.08H405.401L402.761 52.25H468.661Z" fill="url(#paint2_linear_1_1456)"/>
<path d="M397.911 71.0499L395.261 76.8799H334.651L332.011 71.0499L357.811 53.1899H372.111L397.911 71.0499Z" fill="#EBEBEB" fill-opacity="0.47"/>
<path d="M373.901 35.98L372.111 53.19H357.811L356.021 35.98H373.901Z" fill="url(#paint3_linear_1_1456)"/>
<path d="M397.91 71.0498L395.26 76.8798H334.65L332 71.0498H397.91Z" fill="url(#paint4_linear_1_1456)"/>
<path d="M366 2.5H365V39.5H366V2.5Z" fill="#F4F7FB"/>
<g filter="url(#filter2_d_1_1456)">
<mask id="mask0_1_1456" style="mask-type:alpha" maskUnits="userSpaceOnUse" x="859" y="3" width="191" height="104">
<rect x="859" y="3.5" width="191" height="103" fill="#9B3C82"/>
</mask>
<g mask="url(#mask0_1_1456)">
<path d="M956.484 153.809L1025.29 79.1811C1026.23 78.1639 1026.96 76.9633 1027.42 75.654C1027.87 74.3447 1028.06 72.955 1027.96 71.5716L1024.48 23.4319C1024.3 20.9254 1023.18 18.578 1021.36 16.8532C1019.53 15.1285 1017.12 14.1516 1014.61 14.1153L966.364 13.3406C964.969 13.321 963.584 13.5914 962.299 14.1348C961.013 14.6783 959.855 15.4828 958.897 16.4975L890.18 91.0985C888.352 93.0367 887.367 95.6209 887.442 98.2841C887.517 100.947 888.645 103.472 890.579 105.304L942.323 154.195C944.255 156.015 946.829 156.995 949.483 156.923C952.136 156.851 954.653 155.731 956.484 153.809ZM996.858 43.2064C995.602 41.8382 994.78 40.129 994.495 38.2944C994.21 36.4598 994.475 34.5818 995.255 32.8972C996.036 31.2126 997.298 29.7969 998.882 28.8285C1000.47 27.86 1002.3 27.3823 1004.16 27.4555C1006.01 27.5287 1007.8 28.1495 1009.31 29.2397C1010.81 30.3299 1011.96 31.8406 1012.6 33.5815C1013.25 35.3223 1013.36 37.2153 1012.93 39.0217C1012.51 40.8282 1011.55 42.4673 1010.19 43.7323C1009.28 44.5775 1008.22 45.2347 1007.05 45.666C1005.89 46.0973 1004.65 46.2941 1003.42 46.2452C1002.18 46.1963 1000.96 45.9027 999.833 45.3811C998.707 44.8596 997.696 44.1204 996.858 43.2064Z" fill="white" fill-opacity="0.24"/>
</g>
</g>
<g filter="url(#filter3_d_1_1456)">
<mask id="mask1_1_1456" style="mask-type:alpha" maskUnits="userSpaceOnUse" x="650" y="2" width="106" height="57">
<rect x="650" y="2.5" width="106" height="56" fill="#D9D9D9"/>
</mask>
<g mask="url(#mask1_1_1456)">
<path d="M736.511 -15.345L673.377 -0.849398C672.513 -0.653827 671.699 -0.282354 670.986 0.241827C670.273 0.766009 669.675 1.43164 669.23 2.19716L653.707 28.7993C652.899 30.1848 652.64 31.8228 652.981 33.3899C653.322 34.957 654.238 36.3395 655.548 37.2644L680.674 55.0627C681.401 55.576 682.228 55.9326 683.101 56.1099C683.973 56.2871 684.874 56.281 685.744 56.0921L748.821 41.5779C750.482 41.2162 751.932 40.2103 752.853 38.7809C753.773 37.3514 754.089 35.6152 753.731 33.9531L744.107 -10.444C743.745 -12.0988 742.743 -13.5433 741.32 -14.4616C739.896 -15.38 738.167 -15.6976 736.511 -15.345ZM675.382 28.3438C675.549 29.5167 675.366 30.713 674.855 31.7819C674.344 32.8508 673.528 33.7444 672.509 34.3501C671.491 34.9558 670.316 35.2465 669.133 35.1854C667.95 35.1244 666.811 34.7144 665.86 34.0071C664.91 33.2998 664.19 32.3269 663.791 31.2111C663.393 30.0953 663.334 28.8864 663.621 27.737C663.909 26.5876 664.531 25.5491 665.407 24.7524C666.284 23.9557 667.378 23.4365 668.549 23.2602C669.332 23.1424 670.13 23.1807 670.898 23.3728C671.666 23.565 672.389 23.9072 673.024 24.3797C673.659 24.8522 674.194 25.4458 674.599 26.1261C675.003 26.8065 675.27 27.5602 675.382 28.3438Z" fill="white" fill-opacity="0.24"/>
</g>
</g>
<g filter="url(#filter4_d_1_1456)">
<mask id="mask2_1_1456" style="mask-type:alpha" maskUnits="userSpaceOnUse" x="153" y="50" width="106" height="57">
<rect x="259" y="106.5" width="106" height="56" transform="rotate(180 259 106.5)" fill="#D9D9D9"/>
</mask>
<g mask="url(#mask2_1_1456)">
<path d="M172.489 124.345L235.623 109.849C236.487 109.654 237.301 109.282 238.014 108.758C238.727 108.234 239.325 107.568 239.77 106.803L255.293 80.2007C256.101 78.8152 256.36 77.1772 256.019 75.6101C255.678 74.043 254.762 72.6605 253.452 71.7356L228.326 53.9373C227.599 53.424 226.772 53.0674 225.899 52.8902C225.027 52.7129 224.126 52.719 223.256 52.9079L160.179 67.4221C158.518 67.7838 157.068 68.7897 156.147 70.2191C155.227 71.6486 154.911 73.3848 155.269 75.0469L164.893 119.444C165.255 121.099 166.257 122.543 167.68 123.462C169.104 124.38 170.833 124.698 172.489 124.345ZM233.618 80.6562C233.451 79.4833 233.634 78.287 234.145 77.2181C234.656 76.1492 235.472 75.2556 236.491 74.6499C237.509 74.0442 238.684 73.7535 239.867 73.8146C241.05 73.8756 242.189 74.2856 243.14 74.9929C244.09 75.7002 244.81 76.6731 245.209 77.7889C245.607 78.9047 245.666 80.1136 245.379 81.263C245.091 82.4124 244.469 83.4509 243.593 84.2476C242.716 85.0443 241.622 85.5635 240.451 85.7398C239.668 85.8576 238.87 85.8193 238.102 85.6272C237.334 85.435 236.611 85.0928 235.976 84.6203C235.341 84.1478 234.806 83.5542 234.401 82.8739C233.997 82.1935 233.73 81.4398 233.618 80.6562Z" fill="white" fill-opacity="0.16"/>
</g>
</g>
<defs>
<filter id="filter0_f_1_1456" x="386" y="2.5" width="99" height="106" filterUnits="userSpaceOnUse" color-interpolation-filters="sRGB">
<feFlood flood-opacity="0" result="BackgroundImageFix"/>
<feBlend mode="normal" in="SourceGraphic" in2="BackgroundImageFix" result="shape"/>
<feGaussianBlur stdDeviation="12.5" result="effect1_foregroundBlur_1_1456"/>
</filter>
<filter id="filter1_f_1_1456" x="322" y="27.5" width="87" height="93" filterUnits="userSpaceOnUse" color-interpolation-filters="sRGB">
<feFlood flood-opacity="0" result="BackgroundImageFix"/>
<feBlend mode="normal" in="SourceGraphic" in2="BackgroundImageFix" result="shape"/>
<feGaussianBlur stdDeviation="12.5" result="effect1_foregroundBlur_1_1456"/>
</filter>
<filter id="filter2_d_1_1456" x="881.438" y="5.33984" width="156.545" height="109.16" filterUnits="userSpaceOnUse" color-interpolation-filters="sRGB">
<feFlood flood-opacity="0" result="BackgroundImageFix"/>
<feColorMatrix in="SourceAlpha" type="matrix" values="0 0 0 0 0 0 0 0 0 0 0 0 0 0 0 0 0 0 127 0" result="hardAlpha"/>
<feOffset dx="2"/>
<feGaussianBlur stdDeviation="4"/>
<feComposite in2="hardAlpha" operator="out"/>
<feColorMatrix type="matrix" values="0 0 0 0 0 0 0 0 0 0 0 0 0 0 0 0 0 0 0.25 0"/>
<feBlend mode="normal" in2="BackgroundImageFix" result="effect1_dropShadow_1_1456"/>
<feBlend mode="normal" in="SourceGraphic" in2="effect1_dropShadow_1_1456" result="shape"/>
</filter>
<filter id="filter3_d_1_1456" x="648.834" y="0.5" width="109.041" height="61.7383" filterUnits="userSpaceOnUse" color-interpolation-filters="sRGB">
<feFlood flood-opacity="0" result="BackgroundImageFix"/>
<feColorMatrix in="SourceAlpha" type="matrix" values="0 0 0 0 0 0 0 0 0 0 0 0 0 0 0 0 0 0 127 0" result="hardAlpha"/>
<feOffset dy="2"/>
<feGaussianBlur stdDeviation="2"/>
<feComposite in2="hardAlpha" operator="out"/>
<feColorMatrix type="matrix" values="0 0 0 0 0 0 0 0 0 0 0 0 0 0 0 0 0 0 0.25 0"/>
<feBlend mode="normal" in2="BackgroundImageFix" result="effect1_dropShadow_1_1456"/>
<feBlend mode="normal" in="SourceGraphic" in2="effect1_dropShadow_1_1456" result="shape"/>
</filter>
<filter id="filter4_d_1_1456" x="151.125" y="46.7617" width="109.041" height="61.7383" filterUnits="userSpaceOnUse" color-interpolation-filters="sRGB">
<feFlood flood-opacity="0" result="BackgroundImageFix"/>
<feColorMatrix in="SourceAlpha" type="matrix" values="0 0 0 0 0 0 0 0 0 0 0 0 0 0 0 0 0 0 127 0" result="hardAlpha"/>
<feOffset dy="-2"/>
<feGaussianBlur stdDeviation="2"/>
<feComposite in2="hardAlpha" operator="out"/>
<feColorMatrix type="matrix" values="0 0 0 0 0 0 0 0 0 0 0 0 0 0 0 0 0 0 0.25 0"/>
<feBlend mode="normal" in2="BackgroundImageFix" result="effect1_dropShadow_1_1456"/>
<feBlend mode="normal" in="SourceGraphic" in2="effect1_dropShadow_1_1456" result="shape"/>
</filter>
<linearGradient id="paint0_linear_1_1456" x1="0" y1="54.5" x2="1124" y2="54.5" gradientUnits="userSpaceOnUse">
<stop stop-color="#605F60"/>
<stop offset="1" stop-color="#B01515"/>
</linearGradient>
<linearGradient id="paint1_linear_1_1456" x1="426.78" y1="25.7847" x2="444.65" y2="25.7847" gradientUnits="userSpaceOnUse">
<stop stop-color="#ECE9E6" stop-opacity="0.02"/>
<stop offset="1" stop-color="white"/>
</linearGradient>
<linearGradient id="paint2_linear_1_1456" x1="402.761" y1="55.165" x2="468.661" y2="55.165" gradientUnits="userSpaceOnUse">
<stop stop-color="#ECE9E6" stop-opacity="0.02"/>
<stop offset="1" stop-color="white"/>
</linearGradient>
<linearGradient id="paint3_linear_1_1456" x1="356.021" y1="44.585" x2="373.901" y2="44.585" gradientUnits="userSpaceOnUse">
<stop stop-color="#ECE9E6" stop-opacity="0.02"/>
<stop offset="1" stop-color="white"/>
</linearGradient>
<linearGradient id="paint4_linear_1_1456" x1="332" y1="73.9648" x2="397.91" y2="73.9648" gradientUnits="userSpaceOnUse">
<stop stop-color="#ECE9E6" stop-opacity="0.02"/>
<stop offset="1" stop-color="white"/>
</linearGradient>
</defs>
</svg>
