<svg width="1124" height="121" viewBox="0 0 1124 121" fill="none" xmlns="http://www.w3.org/2000/svg">
<path d="M0 2.5H1124V90.5C1124 99.3366 1116.84 106.5 1108 106.5H16C7.16347 106.5 0 99.3366 0 90.5V2.5Z" fill="url(#paint0_linear_1_1704)"/>
<path d="M498.824 55.6094C499.504 57.1641 499.844 58.6641 499.844 60.1094C499.844 62.5 499.113 64.3789 497.652 65.7461C496.191 67.1133 494.051 67.9453 491.23 68.2422L490.82 68.2891L490.727 67.8906L490.223 65.8984L490.094 65.3711L490.633 65.3125C492.766 65.1016 494.336 64.5742 495.344 63.7305C496.352 62.8945 496.852 61.7344 496.844 60.25C496.844 59.125 496.555 57.9414 495.977 56.6992L495.754 56.2305L496.246 56.0547L498.238 55.3633L498.648 55.2109L498.824 55.6094ZM494.805 51.1211L496.574 49.3516L496.75 49.1758L496.938 49.3516L498.707 51.1328L498.895 51.3086L498.707 51.4961L496.949 53.2539L496.762 53.4414L496.586 53.2539L494.805 51.4844L494.629 51.2969L494.805 51.1211ZM507.391 59.3242C507.336 58.7539 507.254 58.2656 507.145 57.8594C507.035 57.4531 506.902 57.1328 506.746 56.8984C506.59 56.6641 506.418 56.4961 506.23 56.3945C506.051 56.2852 505.848 56.2305 505.621 56.2305C505.449 56.2305 505.297 56.2617 505.164 56.3242C505.031 56.3867 504.902 56.5 504.777 56.6641C504.66 56.8281 504.555 57.0469 504.461 57.3203C504.336 57.6953 504.273 58.043 504.273 58.3633C504.273 58.7539 504.406 59.043 504.672 59.2305C504.938 59.4102 505.418 59.5 506.113 59.5C506.52 59.4922 506.945 59.4336 507.391 59.3242ZM506.102 62.5234C504.586 62.5234 503.414 62.1875 502.586 61.5156C501.766 60.8359 501.355 59.8438 501.355 58.5391C501.355 57.5234 501.574 56.5586 502.012 55.6445C502.41 54.8086 502.926 54.1719 503.559 53.7344C504.199 53.2969 504.934 53.0781 505.762 53.0781C506.363 53.0781 506.91 53.1953 507.402 53.4297C507.895 53.6641 508.324 54.0039 508.691 54.4492C509.066 54.8867 509.375 55.4258 509.617 56.0664C510.117 57.3555 510.363 58.7969 510.355 60.3906C510.34 62.7031 509.609 64.5195 508.164 65.8398C506.727 67.1602 504.629 67.9609 501.871 68.2422L501.473 68.2773L501.379 67.8906L500.875 65.8984L500.746 65.3711L501.285 65.3125C504.348 65 506.293 64.043 507.121 62.4414C506.848 62.4727 506.633 62.4922 506.477 62.5C506.328 62.5156 506.203 62.5234 506.102 62.5234ZM519.051 55.6094C519.73 57.1641 520.07 58.6641 520.07 60.1094C520.07 62.5 519.34 64.3789 517.879 65.7461C516.418 67.1133 514.277 67.9453 511.457 68.2422L511.047 68.2891L510.953 67.8906L510.449 65.8984L510.32 65.3711L510.859 65.3125C512.992 65.1016 514.562 64.5742 515.57 63.7305C516.578 62.8945 517.078 61.7344 517.07 60.25C517.07 59.125 516.781 57.9414 516.203 56.6992L515.98 56.2305L516.473 56.0547L518.465 55.3633L518.875 55.2109L519.051 55.6094ZM543.332 47.1836L545.043 45.4727L545.219 45.2969L545.395 45.4727L547.105 47.1953L547.281 47.3711L547.105 47.5469L545.406 49.2461L545.23 49.4219L545.055 49.2461L543.332 47.5352L543.156 47.3594L543.332 47.1836ZM544.305 54.8477C544.102 55.043 543.957 55.2305 543.871 55.4102C543.785 55.582 543.742 55.7422 543.742 55.8906C543.742 56.25 543.953 56.6758 544.375 57.168C544.477 57.2852 544.574 57.3906 544.668 57.4844C544.77 57.5781 544.855 57.6562 544.926 57.7188C544.996 57.7812 545.059 57.8359 545.113 57.8828C545.176 57.9219 545.223 57.9492 545.254 57.9648C545.293 57.9805 545.32 57.9922 545.336 58C545.359 57.9922 545.41 57.9648 545.488 57.918C545.566 57.8711 545.68 57.7812 545.828 57.6484C545.977 57.5078 546.133 57.3477 546.297 57.168C546.719 56.6758 546.926 56.2539 546.918 55.9023C546.926 55.8242 546.918 55.7461 546.895 55.668C546.879 55.5898 546.848 55.5078 546.801 55.4219C546.762 55.3359 546.707 55.2461 546.637 55.1523C546.574 55.0586 546.492 54.9609 546.391 54.8594C546.289 54.7578 546.172 54.6562 546.039 54.5547C545.727 54.2969 545.469 54.168 545.266 54.168C545.234 54.168 545.18 54.1875 545.102 54.2266C545.031 54.2578 544.922 54.332 544.773 54.4492C544.625 54.5586 544.469 54.6914 544.305 54.8477ZM545.277 61.082C544.473 61.5664 543.449 61.9258 542.207 62.1602C540.965 62.3867 539.484 62.5 537.766 62.5H537.367C534.32 62.5 531.992 61.9883 530.383 60.9648C528.781 59.9414 527.98 58.3984 527.98 56.3359C527.98 55.2109 528.207 54.1445 528.66 53.1367L528.848 52.7148L529.281 52.9023L531.121 53.6992L531.543 53.8867L531.379 54.3086C531.254 54.6055 531.16 54.8984 531.098 55.1875C531.043 55.4688 531.016 55.7461 531.016 56.0195C531.016 56.7539 531.23 57.3672 531.66 57.8594C532.098 58.3516 532.801 58.7344 533.77 59.0078C534.738 59.2734 535.98 59.4062 537.496 59.4062C539.566 59.4062 541.105 59.3398 542.113 59.207C541.66 58.707 541.32 58.1719 541.094 57.6016C540.867 57.0234 540.754 56.4102 540.754 55.7617C540.754 54.2305 541.594 52.8828 543.273 51.7188C543.898 51.2812 544.586 51.0625 545.336 51.0625C545.57 51.0625 545.797 51.082 546.016 51.1211C546.234 51.1523 546.445 51.207 546.648 51.2852C546.852 51.3555 547.047 51.4453 547.234 51.5547C549.031 52.6406 549.93 54.0898 549.93 55.9023C549.93 57.1445 549.461 58.2578 548.523 59.2422C549.125 59.3516 549.863 59.4062 550.738 59.4062H551.113C551.199 59.4062 551.277 59.418 551.348 59.4414C551.418 59.457 551.477 59.4883 551.523 59.5352C551.57 59.582 551.613 59.6289 551.652 59.6758C551.691 59.7148 551.719 59.7734 551.734 59.8516C551.758 59.9219 551.773 59.9844 551.781 60.0391C551.797 60.0938 551.809 60.1641 551.816 60.25C551.824 60.3359 551.828 60.4023 551.828 60.4492C551.828 60.4883 551.824 60.5508 551.816 60.6367C551.816 60.7148 551.816 60.7617 551.816 60.7773V61C551.816 61.4844 551.805 61.7812 551.781 61.8906C551.688 62.2891 551.465 62.4922 551.113 62.5H550.762C548.504 62.5 546.676 62.0273 545.277 61.082ZM550.609 66.0391L552.309 64.3281L552.484 64.1523L552.66 64.3281L554.383 66.0508L554.395 66.0625L554.418 66.0391L556.129 64.3281L556.305 64.1523L556.48 64.3281L558.191 66.0508L558.367 66.2266L558.191 66.4023L556.492 68.1016L556.316 68.2773L556.141 68.1016L554.418 66.3906L554.406 66.3789L554.383 66.4023L552.672 68.1016L552.496 68.2773L552.332 68.1016L550.609 66.3906L550.434 66.2148L550.609 66.0391ZM560.242 61C560.242 61.0234 560.242 61.0859 560.242 61.1875C560.242 61.2891 560.242 61.3711 560.242 61.4336C560.242 61.4883 560.238 61.5664 560.23 61.668C560.223 61.7695 560.211 61.8555 560.195 61.9258C560.18 61.9883 560.152 62.0625 560.113 62.1484C560.082 62.2266 560.039 62.2891 559.984 62.3359C559.938 62.3828 559.875 62.4219 559.797 62.4531C559.719 62.4844 559.633 62.5 559.539 62.5H559.422C557.977 62.5 556.895 62.0547 556.176 61.1641C555.277 62.0547 553.941 62.5 552.168 62.5H550.949C550.566 62.5 550.281 62.3555 550.094 62.0664C549.906 61.7695 549.812 61.4141 549.812 61V60.7773C549.812 60.5273 549.852 60.3047 549.93 60.1094C550.008 59.9062 550.137 59.7383 550.316 59.6055C550.488 59.4727 550.699 59.4062 550.949 59.4062H552.109C553.656 59.4062 554.5 59.0195 554.641 58.2461C554.688 57.9961 554.711 57.6992 554.711 57.3555C554.711 56.9727 554.699 56.6133 554.676 56.2773L554.617 55.3164L554.582 54.8711L555.027 54.8242L556.961 54.5898L557.441 54.543L557.477 55.0234L557.664 57.7422C557.711 58.3359 557.871 58.7617 558.145 59.0195C558.418 59.2773 558.852 59.4062 559.445 59.4062H559.539C559.648 59.4062 559.746 59.4258 559.832 59.4648C559.918 59.4961 559.984 59.5508 560.031 59.6289C560.078 59.707 560.117 59.7812 560.148 59.8516C560.188 59.9141 560.211 60.0078 560.219 60.1328C560.234 60.25 560.242 60.3359 560.242 60.3906C560.242 60.4453 560.242 60.5391 560.242 60.6719C560.242 60.7969 560.242 60.8672 560.242 60.8828V61ZM565.07 54.8477C564.875 55.043 564.73 55.2305 564.637 55.4102C564.551 55.582 564.508 55.7422 564.508 55.8906C564.508 56.25 564.719 56.6758 565.141 57.168C565.227 57.2617 565.309 57.3516 565.387 57.4375C565.473 57.5234 565.547 57.5977 565.609 57.6602C565.68 57.7148 565.742 57.7656 565.797 57.8125C565.852 57.8516 565.898 57.8867 565.938 57.918C565.984 57.9414 566.02 57.9609 566.043 57.9766C566.066 57.9922 566.086 58 566.102 58C566.109 57.9922 566.125 57.9844 566.148 57.9766C566.18 57.9609 566.215 57.9414 566.254 57.918C566.293 57.8867 566.34 57.8477 566.395 57.8008C566.457 57.7539 566.52 57.7031 566.582 57.6484C566.652 57.5859 566.727 57.5156 566.805 57.4375C566.891 57.3516 566.977 57.2617 567.062 57.168C567.484 56.6758 567.695 56.2539 567.695 55.9023C567.695 55.7695 567.668 55.6367 567.613 55.5039C567.559 55.3711 567.461 55.2227 567.32 55.0586C567.188 54.8945 567.016 54.7266 566.805 54.5547C566.492 54.2969 566.234 54.168 566.031 54.168C566.016 54.168 565.996 54.1758 565.973 54.1914C565.949 54.1992 565.914 54.2148 565.867 54.2383C565.828 54.2539 565.781 54.2812 565.727 54.3203C565.672 54.3516 565.609 54.3906 565.539 54.4375C565.477 54.4844 565.402 54.543 565.316 54.6133C565.238 54.6836 565.156 54.7617 565.07 54.8477ZM566.043 61.0938C564.613 62.0312 562.551 62.5 559.855 62.5H559.375C558.992 62.5 558.707 62.3555 558.52 62.0664C558.324 61.7773 558.227 61.4219 558.227 61V60.7773C558.227 60.3945 558.328 60.0703 558.531 59.8047C558.727 59.5391 559.008 59.4062 559.375 59.4062H559.855C561.176 59.3984 562.195 59.3398 562.914 59.2305C561.984 58.2305 561.52 57.0742 561.52 55.7617C561.52 54.9883 561.734 54.2656 562.164 53.5938C562.594 52.9141 563.219 52.2891 564.039 51.7188C564.664 51.2812 565.352 51.0625 566.102 51.0625C566.281 51.0625 566.453 51.0742 566.617 51.0977C566.781 51.1133 566.941 51.1445 567.098 51.1914C567.262 51.2305 567.418 51.2812 567.566 51.3438C567.715 51.3984 567.859 51.4688 568 51.5547C569.797 52.6406 570.695 54.0898 570.695 55.9023C570.695 57.1445 570.227 58.2578 569.289 59.2422C569.891 59.3516 570.629 59.4062 571.504 59.4062H571.879C571.98 59.4062 572.066 59.4219 572.137 59.4531C572.215 59.4844 572.277 59.5195 572.324 59.5586C572.379 59.5977 572.422 59.6602 572.453 59.7461C572.492 59.8242 572.52 59.8906 572.535 59.9453C572.551 59.9922 572.562 60.0703 572.57 60.1797C572.586 60.2812 572.594 60.3516 572.594 60.3906C572.594 60.4297 572.59 60.5039 572.582 60.6133C572.582 60.7148 572.582 60.7695 572.582 60.7773V61C572.582 61.0312 572.582 61.0938 572.582 61.1875C572.59 61.2812 572.594 61.3594 572.594 61.4219C572.594 61.4844 572.59 61.5664 572.582 61.668C572.574 61.7695 572.562 61.8555 572.547 61.9258C572.531 61.9883 572.504 62.0625 572.465 62.1484C572.434 62.2266 572.391 62.2891 572.336 62.3359C572.289 62.3828 572.227 62.4219 572.148 62.4531C572.07 62.4844 571.98 62.5 571.879 62.5H571.527C570.41 62.5 569.391 62.3828 568.469 62.1484C567.555 61.9141 566.746 61.5625 566.043 61.0938ZM564.156 47.207L565.867 45.4961L566.043 45.3203L566.219 45.4961L567.93 47.2188L568.105 47.3945L567.93 47.5703L566.23 49.2695L566.055 49.4453L565.879 49.2695L564.156 47.5586L563.98 47.3828L564.156 47.207ZM576.227 47.7344L577.938 46.0234L578.113 45.8477L578.289 46.0234L580 47.7461L580.176 47.9219L580 48.0977L578.301 49.7969L578.125 49.9727L577.949 49.7969L576.227 48.0859L576.051 47.9102L576.227 47.7344ZM581.676 56.5586C581.473 56.4805 581.242 56.3906 580.984 56.2891C580.727 56.1797 580.441 56.0625 580.129 55.9375C578.652 55.3438 577.668 55.0469 577.176 55.0469C576.441 55.0469 575.836 55.3516 575.359 55.9609L575.031 56.3945L574.797 56.6875L574.457 56.5234L572.652 55.6328L572.195 55.4102L572.465 54.9648L572.652 54.6484C573.184 53.7734 573.832 53.1133 574.598 52.668C575.363 52.2148 576.227 51.9844 577.188 51.9766C578.25 51.9766 579.504 52.3281 580.949 53.0312C583.332 54.1875 585.16 54.793 586.434 54.8477L586.879 54.8711V55.3281L586.855 57.3555V57.7891L586.422 57.8242C585.906 57.8633 585.258 58.0664 584.477 58.4336C584.562 58.7227 584.824 58.957 585.262 59.1367C585.699 59.3164 586.352 59.4062 587.219 59.4062H587.734C587.812 59.4062 587.887 59.418 587.957 59.4414C588.027 59.457 588.086 59.4883 588.133 59.5352C588.18 59.582 588.219 59.625 588.25 59.6641C588.289 59.7031 588.32 59.7617 588.344 59.8398C588.367 59.9102 588.383 59.9688 588.391 60.0156C588.406 60.0625 588.414 60.1328 588.414 60.2266C588.422 60.3125 588.426 60.3711 588.426 60.4023C588.434 60.4336 588.438 60.4922 588.438 60.5781C588.438 60.6641 588.438 60.7109 588.438 60.7188V61C588.438 61.0078 588.438 61.0781 588.438 61.2109C588.438 61.3438 588.438 61.4375 588.438 61.4922C588.438 61.5469 588.43 61.6406 588.414 61.7734C588.406 61.8984 588.387 61.9922 588.355 62.0547C588.324 62.1172 588.281 62.1914 588.227 62.2773C588.18 62.3555 588.113 62.4141 588.027 62.4531C587.941 62.4844 587.84 62.5 587.723 62.5H587.031C586.133 62.5 585.344 62.3984 584.664 62.1953C583.984 61.9844 583.418 61.6602 582.965 61.2227C582.52 60.7852 582.211 60.2383 582.039 59.582C581.992 59.6055 581.945 59.6289 581.898 59.6523C581.852 59.6758 581.805 59.6992 581.758 59.7227C581.719 59.7461 581.676 59.7695 581.629 59.793C578.215 61.5977 575.094 62.5 572.266 62.5H571.703C571.32 62.5 571.035 62.3555 570.848 62.0664C570.652 61.7773 570.555 61.4219 570.555 61V60.7773C570.555 60.3945 570.656 60.0703 570.859 59.8047C571.055 59.5391 571.336 59.4062 571.703 59.4062H572.406C574.891 59.4062 577.98 58.457 581.676 56.5586ZM588.438 62.5H587.547C587.164 62.5 586.879 62.3555 586.691 62.0664C586.496 61.7773 586.398 61.4219 586.398 61V60.7773C586.398 60.3945 586.5 60.0703 586.703 59.8047C586.898 59.5391 587.18 59.4062 587.547 59.4062H588.438C589.602 59.4062 590.371 59.3008 590.746 59.0898C591.254 58.793 591.508 58.1133 591.508 57.0508C591.508 56.1602 591.371 55.1641 591.098 54.0625L590.98 53.6055L591.438 53.5L593.348 53.0195L593.77 52.9023L593.91 53.3242C594.301 54.5898 594.496 55.8203 594.496 57.0156C594.488 59.0859 593.879 60.582 592.668 61.5039C592.434 61.6758 592.168 61.8281 591.871 61.9609C591.582 62.0859 591.258 62.1875 590.898 62.2656C590.547 62.3438 590.168 62.4023 589.762 62.4414C589.355 62.4805 588.914 62.5 588.438 62.5ZM587.383 49.375L589.082 47.6641L589.258 47.4883L589.434 47.6641L591.156 49.3867L591.168 49.3984L591.191 49.375L592.902 47.6641L593.078 47.4883L593.254 47.6641L594.965 49.3867L595.141 49.5625L594.965 49.7383L593.266 51.4375L593.09 51.6133L592.914 51.4375L591.191 49.7266L591.18 49.7148L591.156 49.7383L589.445 51.4375L589.27 51.6133L589.105 51.4375L587.383 49.7266L587.207 49.5508L587.383 49.375Z" fill="#F4F7FB"/>
<path d="M468.671 52.2496L466.021 58.0797H405.411L402.761 52.2496L428.571 34.3896H442.861L468.671 52.2496Z" fill="#EBEBEB" fill-opacity="0.47"/>
<g filter="url(#filter0_f_1_1704)">
<path d="M411 83.5L433 27.5L460 83.5H411Z" fill="white" fill-opacity="0.49"/>
</g>
<g filter="url(#filter1_f_1_1704)">
<path d="M347 95.5L363.612 52.5L384 95.5H347Z" fill="white"/>
</g>
<path d="M436 2.5H435V20.5H436V2.5Z" fill="#F4F7FB"/>
<path d="M444.65 17.1797L442.86 34.3897H428.57L426.78 17.1797H444.65Z" fill="url(#paint1_linear_1_1704)"/>
<path d="M468.661 52.25L466.011 58.08H405.401L402.761 52.25H468.661Z" fill="url(#paint2_linear_1_1704)"/>
<path d="M397.911 71.0495L395.261 76.8795H334.651L332.011 71.0495L357.811 53.1895H372.111L397.911 71.0495Z" fill="#EBEBEB" fill-opacity="0.47"/>
<path d="M373.901 35.9805L372.111 53.1905H357.811L356.021 35.9805H373.901Z" fill="url(#paint3_linear_1_1704)"/>
<path d="M397.91 71.0498L395.26 76.8798H334.65L332 71.0498H397.91Z" fill="url(#paint4_linear_1_1704)"/>
<path d="M366 2.5H365V39.5H366V2.5Z" fill="#F4F7FB"/>
<g filter="url(#filter2_d_1_1704)">
<mask id="mask0_1_1704" style="mask-type:alpha" maskUnits="userSpaceOnUse" x="859" y="3" width="191" height="104">
<rect x="859" y="3.5" width="191" height="103" fill="#9B3C82"/>
</mask>
<g mask="url(#mask0_1_1704)">
<path d="M956.484 153.809L1025.29 79.1815C1026.23 78.1644 1026.96 76.9638 1027.42 75.6545C1027.87 74.3452 1028.06 72.9555 1027.96 71.5721L1024.48 23.4324C1024.3 20.9259 1023.18 18.5785 1021.36 16.8537C1019.53 15.1289 1017.12 14.152 1014.61 14.1158L966.364 13.3411C964.969 13.3215 963.584 13.5919 962.299 14.1353C961.013 14.6788 959.855 15.4833 958.897 16.498L890.18 91.099C888.352 93.0372 887.367 95.6213 887.442 98.2846C887.517 100.948 888.645 103.473 890.579 105.305L942.323 154.195C944.255 156.015 946.829 156.996 949.483 156.924C952.136 156.851 954.653 155.731 956.484 153.809ZM996.858 43.2068C995.602 41.8387 994.78 40.1295 994.495 38.2949C994.21 36.4603 994.475 34.5823 995.255 32.8977C996.036 31.2131 997.298 29.7974 998.882 28.8289C1000.47 27.8605 1002.3 27.3828 1004.16 27.456C1006.01 27.5291 1007.8 28.15 1009.31 29.2402C1010.81 30.3303 1011.96 31.8411 1012.6 33.5819C1013.25 35.3228 1013.36 37.2158 1012.93 39.0222C1012.51 40.8287 1011.55 42.4678 1010.19 43.7328C1009.28 44.578 1008.22 45.2352 1007.05 45.6665C1005.89 46.0977 1004.65 46.2946 1003.42 46.2457C1002.18 46.1968 1000.96 45.9031 999.833 45.3816C998.707 44.86 997.696 44.1209 996.858 43.2068Z" fill="white" fill-opacity="0.24"/>
</g>
</g>
<g filter="url(#filter3_d_1_1704)">
<mask id="mask1_1_1704" style="mask-type:alpha" maskUnits="userSpaceOnUse" x="650" y="2" width="106" height="57">
<rect x="650" y="2.5" width="106" height="56" fill="#D9D9D9"/>
</mask>
<g mask="url(#mask1_1_1704)">
<path d="M736.511 -15.345L673.377 -0.849398C672.513 -0.653827 671.699 -0.282354 670.986 0.241827C670.273 0.766009 669.675 1.43164 669.23 2.19716L653.707 28.7993C652.899 30.1848 652.64 31.8228 652.981 33.3899C653.322 34.957 654.238 36.3395 655.548 37.2644L680.674 55.0627C681.401 55.576 682.228 55.9326 683.101 56.1099C683.973 56.2871 684.874 56.281 685.744 56.0921L748.821 41.5779C750.482 41.2162 751.932 40.2103 752.853 38.7809C753.773 37.3514 754.089 35.6152 753.731 33.9531L744.107 -10.444C743.745 -12.0988 742.743 -13.5433 741.32 -14.4616C739.896 -15.38 738.167 -15.6976 736.511 -15.345ZM675.382 28.3438C675.549 29.5167 675.366 30.713 674.855 31.7819C674.344 32.8508 673.528 33.7444 672.509 34.3501C671.491 34.9558 670.316 35.2465 669.133 35.1854C667.95 35.1244 666.811 34.7144 665.86 34.0071C664.91 33.2998 664.19 32.3269 663.791 31.2111C663.393 30.0953 663.334 28.8864 663.621 27.737C663.909 26.5876 664.531 25.5491 665.407 24.7524C666.284 23.9557 667.378 23.4365 668.549 23.2602C669.332 23.1424 670.13 23.1807 670.898 23.3728C671.666 23.565 672.389 23.9072 673.024 24.3797C673.659 24.8522 674.194 25.4458 674.599 26.1261C675.003 26.8065 675.27 27.5602 675.382 28.3438Z" fill="white" fill-opacity="0.24"/>
</g>
</g>
<g filter="url(#filter4_d_1_1704)">
<mask id="mask2_1_1704" style="mask-type:alpha" maskUnits="userSpaceOnUse" x="153" y="50" width="106" height="57">
<rect x="259" y="106.5" width="106" height="56" transform="rotate(180 259 106.5)" fill="#D9D9D9"/>
</mask>
<g mask="url(#mask2_1_1704)">
<path d="M172.489 124.345L235.623 109.849C236.487 109.654 237.301 109.282 238.014 108.758C238.727 108.234 239.325 107.568 239.77 106.803L255.293 80.2007C256.101 78.8152 256.36 77.1772 256.019 75.6101C255.678 74.043 254.762 72.6605 253.452 71.7356L228.326 53.9373C227.599 53.424 226.772 53.0674 225.899 52.8902C225.027 52.7129 224.126 52.719 223.256 52.9079L160.179 67.4221C158.518 67.7838 157.068 68.7897 156.147 70.2191C155.227 71.6486 154.911 73.3848 155.269 75.0469L164.893 119.444C165.255 121.099 166.257 122.543 167.68 123.462C169.104 124.38 170.833 124.698 172.489 124.345ZM233.618 80.6562C233.451 79.4833 233.634 78.287 234.145 77.2181C234.656 76.1492 235.472 75.2556 236.491 74.6499C237.509 74.0442 238.684 73.7535 239.867 73.8146C241.05 73.8756 242.189 74.2856 243.14 74.9929C244.09 75.7002 244.81 76.6731 245.209 77.7889C245.607 78.9047 245.666 80.1136 245.379 81.263C245.091 82.4124 244.469 83.4509 243.593 84.2476C242.716 85.0443 241.622 85.5635 240.451 85.7398C239.668 85.8576 238.87 85.8193 238.102 85.6272C237.334 85.435 236.611 85.0928 235.976 84.6203C235.341 84.1478 234.806 83.5542 234.401 82.8739C233.997 82.1935 233.73 81.4398 233.618 80.6562Z" fill="white" fill-opacity="0.16"/>
</g>
</g>
<defs>
<filter id="filter0_f_1_1704" x="386" y="2.5" width="99" height="106" filterUnits="userSpaceOnUse" color-interpolation-filters="sRGB">
<feFlood flood-opacity="0" result="BackgroundImageFix"/>
<feBlend mode="normal" in="SourceGraphic" in2="BackgroundImageFix" result="shape"/>
<feGaussianBlur stdDeviation="12.5" result="effect1_foregroundBlur_1_1704"/>
</filter>
<filter id="filter1_f_1_1704" x="322" y="27.5" width="87" height="93" filterUnits="userSpaceOnUse" color-interpolation-filters="sRGB">
<feFlood flood-opacity="0" result="BackgroundImageFix"/>
<feBlend mode="normal" in="SourceGraphic" in2="BackgroundImageFix" result="shape"/>
<feGaussianBlur stdDeviation="12.5" result="effect1_foregroundBlur_1_1704"/>
</filter>
<filter id="filter2_d_1_1704" x="881.438" y="5.33984" width="156.545" height="109.16" filterUnits="userSpaceOnUse" color-interpolation-filters="sRGB">
<feFlood flood-opacity="0" result="BackgroundImageFix"/>
<feColorMatrix in="SourceAlpha" type="matrix" values="0 0 0 0 0 0 0 0 0 0 0 0 0 0 0 0 0 0 127 0" result="hardAlpha"/>
<feOffset dx="2"/>
<feGaussianBlur stdDeviation="4"/>
<feComposite in2="hardAlpha" operator="out"/>
<feColorMatrix type="matrix" values="0 0 0 0 0 0 0 0 0 0 0 0 0 0 0 0 0 0 0.25 0"/>
<feBlend mode="normal" in2="BackgroundImageFix" result="effect1_dropShadow_1_1704"/>
<feBlend mode="normal" in="SourceGraphic" in2="effect1_dropShadow_1_1704" result="shape"/>
</filter>
<filter id="filter3_d_1_1704" x="648.834" y="0.5" width="109.041" height="61.7383" filterUnits="userSpaceOnUse" color-interpolation-filters="sRGB">
<feFlood flood-opacity="0" result="BackgroundImageFix"/>
<feColorMatrix in="SourceAlpha" type="matrix" values="0 0 0 0 0 0 0 0 0 0 0 0 0 0 0 0 0 0 127 0" result="hardAlpha"/>
<feOffset dy="2"/>
<feGaussianBlur stdDeviation="2"/>
<feComposite in2="hardAlpha" operator="out"/>
<feColorMatrix type="matrix" values="0 0 0 0 0 0 0 0 0 0 0 0 0 0 0 0 0 0 0.25 0"/>
<feBlend mode="normal" in2="BackgroundImageFix" result="effect1_dropShadow_1_1704"/>
<feBlend mode="normal" in="SourceGraphic" in2="effect1_dropShadow_1_1704" result="shape"/>
</filter>
<filter id="filter4_d_1_1704" x="151.125" y="46.7617" width="109.041" height="61.7383" filterUnits="userSpaceOnUse" color-interpolation-filters="sRGB">
<feFlood flood-opacity="0" result="BackgroundImageFix"/>
<feColorMatrix in="SourceAlpha" type="matrix" values="0 0 0 0 0 0 0 0 0 0 0 0 0 0 0 0 0 0 127 0" result="hardAlpha"/>
<feOffset dy="-2"/>
<feGaussianBlur stdDeviation="2"/>
<feComposite in2="hardAlpha" operator="out"/>
<feColorMatrix type="matrix" values="0 0 0 0 0 0 0 0 0 0 0 0 0 0 0 0 0 0 0.25 0"/>
<feBlend mode="normal" in2="BackgroundImageFix" result="effect1_dropShadow_1_1704"/>
<feBlend mode="normal" in="SourceGraphic" in2="effect1_dropShadow_1_1704" result="shape"/>
</filter>
<linearGradient id="paint0_linear_1_1704" x1="0" y1="54.5" x2="1124" y2="54.5" gradientUnits="userSpaceOnUse">
<stop stop-color="#605F60"/>
<stop offset="1" stop-color="#B01515"/>
</linearGradient>
<linearGradient id="paint1_linear_1_1704" x1="426.78" y1="25.7847" x2="444.65" y2="25.7847" gradientUnits="userSpaceOnUse">
<stop stop-color="#ECE9E6" stop-opacity="0.02"/>
<stop offset="1" stop-color="white"/>
</linearGradient>
<linearGradient id="paint2_linear_1_1704" x1="402.761" y1="55.165" x2="468.661" y2="55.165" gradientUnits="userSpaceOnUse">
<stop stop-color="#ECE9E6" stop-opacity="0.02"/>
<stop offset="1" stop-color="white"/>
</linearGradient>
<linearGradient id="paint3_linear_1_1704" x1="356.021" y1="44.5855" x2="373.901" y2="44.5855" gradientUnits="userSpaceOnUse">
<stop stop-color="#ECE9E6" stop-opacity="0.02"/>
<stop offset="1" stop-color="white"/>
</linearGradient>
<linearGradient id="paint4_linear_1_1704" x1="332" y1="73.9648" x2="397.91" y2="73.9648" gradientUnits="userSpaceOnUse">
<stop stop-color="#ECE9E6" stop-opacity="0.02"/>
<stop offset="1" stop-color="white"/>
</linearGradient>
</defs>
</svg>
