<svg width="25" height="25" viewBox="0 0 25 25" fill="none" xmlns="http://www.w3.org/2000/svg">
<path d="M22.2099 7.78994C22.117 7.69621 22.0064 7.62182 21.8845 7.57105C21.7627 7.52028 21.632 7.49414 21.4999 7.49414C21.3679 7.49414 21.2372 7.52028 21.1154 7.57105C20.9935 7.62182 20.8829 7.69621 20.7899 7.78994L14.4999 14.0899L10.2099 9.78994C10.117 9.69621 10.0064 9.62182 9.88452 9.57105C9.76266 9.52028 9.63195 9.49414 9.49994 9.49414C9.36793 9.49414 9.23722 9.52028 9.11536 9.57105C8.9935 9.62182 8.8829 9.69621 8.78994 9.78994L2.78994 15.7899C2.69621 15.8829 2.62182 15.9935 2.57105 16.1154C2.52028 16.2372 2.49414 16.3679 2.49414 16.4999C2.49414 16.632 2.52028 16.7627 2.57105 16.8845C2.62182 17.0064 2.69621 17.117 2.78994 17.2099C2.8829 17.3037 2.9935 17.3781 3.11536 17.4288C3.23722 17.4796 3.36793 17.5057 3.49994 17.5057C3.63195 17.5057 3.76266 17.4796 3.88452 17.4288C4.00637 17.3781 4.11698 17.3037 4.20994 17.2099L9.49994 11.9099L13.7899 16.2099C13.8829 16.3037 13.9935 16.3781 14.1154 16.4288C14.2372 16.4796 14.3679 16.5057 14.4999 16.5057C14.632 16.5057 14.7627 16.4796 14.8845 16.4288C15.0064 16.3781 15.117 16.3037 15.2099 16.2099L22.2099 9.20994C22.3037 9.11698 22.3781 9.00638 22.4288 8.88452C22.4796 8.76266 22.5057 8.63195 22.5057 8.49994C22.5057 8.36793 22.4796 8.23722 22.4288 8.11536C22.3781 7.9935 22.3037 7.8829 22.2099 7.78994Z" fill="#790000"/>
</svg>
