<svg width="25" height="24" viewBox="0 0 25 24" fill="none" xmlns="http://www.w3.org/2000/svg">
<g id="brand">
<g id="icon--black">
<path id="Vector" d="M10.8581 0.701294L8.64878 0.125266C8.17692 -0.000454224 7.68491 -0.0319406 7.20087 0.0326072C6.71683 0.097155 6.25026 0.256471 5.82783 0.501448C5.4054 0.746424 5.03539 1.07226 4.73897 1.46032C4.44254 1.84838 4.22551 2.29106 4.10027 2.76305L3.54883 4.84589C5.36733 2.58254 7.98215 1.09984 10.8581 0.701294Z" fill="#8798A1"/>
<path id="Vector_2" d="M1.1675 13.8125L0.626601 15.8532C0.373755 16.8057 0.509609 17.8196 1.00428 18.6719C1.49895 19.5243 2.31193 20.1452 3.26439 20.3982L5.37181 20.9602C3.12155 19.1909 1.62043 16.6389 1.1675 13.8125Z" fill="#8798A1"/>
<path id="Vector_3" d="M21.7352 3.59942L19.3713 2.9707C20.5658 3.8895 21.5659 5.03637 22.3135 6.34476C23.0612 7.65316 23.5415 9.09701 23.7267 10.5925L24.3765 8.13388C24.626 7.18238 24.4881 6.17075 23.993 5.32075C23.4979 4.47075 22.6859 3.85174 21.7352 3.59942Z" fill="#8798A1"/>
<path id="Vector_4" d="M14.0901 23.2719L16.3556 23.883C17.3081 24.1359 18.322 24 19.1743 23.5053C20.0267 23.0107 20.6476 22.1977 20.9006 21.2452L21.5398 18.8428C19.7375 21.2434 17.0601 22.8352 14.0901 23.2719Z" fill="#8798A1"/>
<path id="Vector_5" d="M12.5027 1.59375C10.4442 1.59306 8.43175 2.20283 6.71984 3.34596C5.00794 4.48909 3.67348 6.11422 2.88525 8.01582C2.09702 9.91741 1.89042 12.0101 2.29159 14.0291C2.69275 16.0481 3.68366 17.9028 5.13898 19.3586C6.59431 20.8144 8.44868 21.806 10.4676 22.2078C12.4864 22.6097 14.5792 22.4038 16.481 21.6162C18.3829 20.8286 20.0085 19.4947 21.1522 17.7832C22.2959 16.0716 22.9063 14.0594 22.9063 12.0009C22.9063 9.24135 21.8103 6.59479 19.8594 4.64317C17.9084 2.69156 15.2622 1.59468 12.5027 1.59375ZM6.60895 6.78503C6.72023 6.20804 7.00008 5.677 7.41313 5.25904C7.82618 4.84108 8.35388 4.55498 8.92951 4.43689C9.50515 4.31881 10.1029 4.37405 10.6471 4.59563C11.1914 4.8172 11.6577 5.19517 11.9871 5.68175C12.3166 6.16832 12.4944 6.74166 12.498 7.32927C12.5017 7.91688 12.331 8.49238 12.0077 8.98301C11.6843 9.47365 11.2227 9.85738 10.6812 10.0857C10.1398 10.314 9.5428 10.3767 8.96575 10.2658C8.58239 10.1921 8.21731 10.0436 7.89137 9.82876C7.56543 9.61393 7.28501 9.33697 7.06614 9.01373C6.84727 8.69048 6.69424 8.32728 6.6158 7.94487C6.53735 7.56246 6.53502 7.16834 6.60895 6.78503ZM10.9327 15.7767C10.8206 16.3535 10.5401 16.8841 10.1265 17.3014C9.71293 17.7188 9.18491 18.0042 8.60918 18.1215C8.03345 18.2389 7.43586 18.1829 6.89194 17.9607C6.34802 17.7385 5.88219 17.36 5.55333 16.8731C5.22447 16.3862 5.04734 15.8127 5.04434 15.2251C5.04133 14.6376 5.21259 14.0623 5.53645 13.5721C5.86032 13.0818 6.32226 12.6986 6.86388 12.4708C7.4055 12.2431 8.00249 12.181 8.57939 12.2924C8.96278 12.3665 9.32782 12.5154 9.65363 12.7306C9.97944 12.9459 10.2596 13.2232 10.4782 13.5468C10.6967 13.8704 10.8494 14.2339 10.9274 14.6165C11.0053 14.9991 11.0071 15.3934 10.9327 15.7767ZM12.1936 13.3707C11.9375 13.3212 11.7018 13.1969 11.5162 13.0136C11.3307 12.8302 11.2036 12.596 11.1509 12.3405C11.0983 12.085 11.1225 11.8197 11.2205 11.5779C11.3185 11.3362 11.4859 11.1289 11.7016 10.9822C11.9173 10.8354 12.1716 10.7559 12.4325 10.7535C12.6933 10.7511 12.949 10.8261 13.1673 10.9689C13.3856 11.1116 13.5568 11.3159 13.6591 11.5558C13.7615 11.7957 13.7905 12.0606 13.7426 12.317C13.7105 12.4881 13.645 12.6513 13.5497 12.797C13.4544 12.9427 13.3312 13.0681 13.1873 13.166C13.0433 13.264 12.8814 13.3325 12.7109 13.3676C12.5403 13.4027 12.3646 13.4038 12.1936 13.3707ZM18.3929 17.2097C18.2817 17.7867 18.0018 18.3178 17.5888 18.7357C17.1757 19.1537 16.648 19.4398 16.0724 19.5579C15.4967 19.676 14.899 19.6207 14.3548 19.3991C13.8105 19.1776 13.3442 18.7996 13.0147 18.313C12.6853 17.8264 12.5075 17.2531 12.5038 16.6655C12.5002 16.0779 12.6708 15.5024 12.9942 15.0117C13.3176 14.5211 13.7792 14.1374 14.3206 13.909C14.8621 13.6807 15.4591 13.6181 16.0361 13.729C16.4195 13.8027 16.7846 13.9512 17.1105 14.166C17.4365 14.3808 17.7169 14.6578 17.9357 14.981C18.1546 15.3043 18.3076 15.6675 18.3861 16.0499C18.4645 16.4323 18.4669 16.8264 18.3929 17.2097ZM16.426 11.7023C15.849 11.5911 15.318 11.3112 14.9 10.8982C14.4821 10.4851 14.196 9.95741 14.0779 9.38177C13.9598 8.80614 14.015 8.20842 14.2366 7.66417C14.4582 7.11993 14.8362 6.6536 15.3227 6.32415C15.8093 5.99469 16.3826 5.81689 16.9703 5.81324C17.5579 5.80959 18.1334 5.98024 18.624 6.30363C19.1146 6.62701 19.4984 7.0886 19.7267 7.63005C19.955 8.1715 20.0177 8.76849 19.9068 9.34554C19.8335 9.72921 19.6853 10.0947 19.4706 10.421C19.2559 10.7473 18.9791 11.0282 18.6558 11.2474C18.3325 11.4666 17.9691 11.6199 17.5865 11.6986C17.2039 11.7773 16.8096 11.7797 16.426 11.7059V11.7023Z" fill="#8798A1"/>
</g>
</g>
</svg>
