<svg width="25" height="24" viewBox="0 0 25 24" fill="none" xmlns="http://www.w3.org/2000/svg">
<g id="Brands / instagram">
<path id="Vector" d="M17.838 5.46C17.6007 5.46 17.3687 5.53038 17.1714 5.66224C16.974 5.79409 16.8202 5.98151 16.7294 6.20078C16.6386 6.42005 16.6148 6.66133 16.6611 6.89411C16.7074 7.12689 16.8217 7.34071 16.9895 7.50853C17.1573 7.67635 17.3712 7.79064 17.6039 7.83694C17.8367 7.88324 18.078 7.85948 18.2973 7.76866C18.5165 7.67783 18.704 7.52402 18.8358 7.32668C18.9677 7.12935 19.038 6.89734 19.038 6.66C19.038 6.34174 18.9116 6.03652 18.6866 5.81147C18.4615 5.58643 18.1563 5.46 17.838 5.46ZM22.438 7.88C22.4186 7.0503 22.2632 6.2294 21.978 5.45C21.7238 4.78313 21.328 4.17928 20.818 3.68C20.3229 3.16743 19.7176 2.77418 19.048 2.53C18.2707 2.23616 17.4489 2.07721 16.618 2.06C15.558 2 15.218 2 12.498 2C9.77805 2 9.43805 2 8.37805 2.06C7.5472 2.07721 6.72539 2.23616 5.94805 2.53C5.27972 2.77665 4.67498 3.16956 4.17805 3.68C3.66547 4.17518 3.27222 4.78044 3.02805 5.45C2.73421 6.22734 2.57526 7.04915 2.55805 7.88C2.49805 8.94 2.49805 9.28 2.49805 12C2.49805 14.72 2.49805 15.06 2.55805 16.12C2.57526 16.9508 2.73421 17.7727 3.02805 18.55C3.27222 19.2196 3.66547 19.8248 4.17805 20.32C4.67498 20.8304 5.27972 21.2234 5.94805 21.47C6.72539 21.7638 7.5472 21.9228 8.37805 21.94C9.43805 22 9.77805 22 12.498 22C15.218 22 15.558 22 16.618 21.94C17.4489 21.9228 18.2707 21.7638 19.048 21.47C19.7176 21.2258 20.3229 20.8326 20.818 20.32C21.3303 19.8226 21.7264 19.2182 21.978 18.55C22.2632 17.7706 22.4186 16.9497 22.438 16.12C22.438 15.06 22.498 14.72 22.498 12C22.498 9.28 22.498 8.94 22.438 7.88ZM20.638 16C20.6308 16.6348 20.5158 17.2637 20.298 17.86C20.1384 18.2952 19.8819 18.6884 19.548 19.01C19.2237 19.3405 18.8313 19.5964 18.398 19.76C17.8017 19.9778 17.1728 20.0927 16.538 20.1C15.538 20.15 15.168 20.16 12.538 20.16C9.90805 20.16 9.53805 20.16 8.53805 20.1C7.87894 20.1123 7.22264 20.0109 6.59805 19.8C6.18383 19.6281 5.8094 19.3728 5.49805 19.05C5.16614 18.7287 4.91289 18.3352 4.75805 17.9C4.5139 17.2952 4.37849 16.6519 4.35805 16C4.35805 15 4.29805 14.63 4.29805 12C4.29805 9.37 4.29805 9 4.35805 8C4.36253 7.35106 4.481 6.70795 4.70805 6.1C4.88409 5.67791 5.15431 5.30166 5.49805 5C5.80186 4.65617 6.17733 4.3831 6.59805 4.2C7.2076 3.98004 7.85004 3.86508 8.49805 3.86C9.49805 3.86 9.86805 3.8 12.498 3.8C15.128 3.8 15.498 3.8 16.498 3.86C17.1328 3.86728 17.7618 3.98225 18.358 4.2C18.8125 4.36865 19.2203 4.64285 19.548 5C19.8757 5.30718 20.1318 5.68273 20.298 6.1C20.5203 6.70893 20.6353 7.35178 20.638 8C20.688 9 20.698 9.37 20.698 12C20.698 14.63 20.688 15 20.638 16ZM12.498 6.87C11.4839 6.87198 10.493 7.17453 9.6507 7.73942C8.80839 8.30431 8.15243 9.1062 7.76568 10.0438C7.37894 10.9813 7.27877 12.0125 7.47784 13.0069C7.67691 14.0014 8.16628 14.9145 8.88412 15.631C9.60196 16.3474 10.5161 16.835 11.5109 17.0321C12.5058 17.2293 13.5367 17.1271 14.4735 16.7385C15.4103 16.35 16.2109 15.6924 16.7742 14.849C17.3374 14.0056 17.638 13.0142 17.638 12C17.6394 11.3251 17.5073 10.6566 17.2493 10.033C16.9913 9.40931 16.6126 8.84281 16.1349 8.36605C15.6572 7.88929 15.09 7.51168 14.4658 7.25493C13.8417 6.99818 13.1729 6.86736 12.498 6.87ZM12.498 15.33C11.8394 15.33 11.1956 15.1347 10.648 14.7688C10.1004 14.4029 9.67357 13.8828 9.42153 13.2743C9.16949 12.6659 9.10354 11.9963 9.23203 11.3503C9.36052 10.7044 9.67767 10.111 10.1434 9.64533C10.6091 9.17963 11.2024 8.86247 11.8484 8.73398C12.4944 8.6055 13.1639 8.67144 13.7724 8.92348C14.3809 9.17552 14.9009 9.60234 15.2668 10.15C15.6327 10.6976 15.828 11.3414 15.828 12C15.828 12.4373 15.7419 12.8703 15.5746 13.2743C15.4072 13.6784 15.1619 14.0454 14.8527 14.3547C14.5435 14.6639 14.1764 14.9092 13.7724 15.0765C13.3684 15.2439 12.9353 15.33 12.498 15.33Z" fill="#8798A1"/>
</g>
</svg>
