<svg width="25" height="24" viewBox="0 0 25 24" fill="none" xmlns="http://www.w3.org/2000/svg">
<g id="Brands / telegram">
<path id="Vector" d="M22.7627 2.42778C22.478 2.19091 22.1344 2.03567 21.7685 1.97858C21.4025 1.92149 21.0279 1.96469 20.6846 2.10357L2.76371 9.33892C2.38046 9.4966 2.05422 9.76711 1.82831 10.1145C1.60239 10.462 1.48747 10.8699 1.49881 11.2841C1.51015 11.6984 1.6472 12.0994 1.89178 12.434C2.13637 12.7685 2.47691 13.0208 2.86821 13.1573L6.49321 14.418L8.51371 21.0997C8.54116 21.1889 8.58101 21.2739 8.63209 21.352C8.63984 21.364 8.65077 21.373 8.65901 21.3846C8.71801 21.467 8.78932 21.5397 8.87044 21.6004C8.89351 21.618 8.9156 21.6345 8.94026 21.6501C9.03519 21.7131 9.14032 21.7591 9.25099 21.7862L9.26283 21.7872L9.26954 21.7901C9.33607 21.8036 9.40379 21.8105 9.47169 21.8106C9.47822 21.8106 9.48402 21.8074 9.49049 21.8073C9.59295 21.8055 9.69452 21.7879 9.79158 21.755C9.81416 21.7473 9.83351 21.7345 9.85542 21.7252C9.92779 21.6952 9.99637 21.6567 10.0597 21.6106C10.1104 21.5679 10.1612 21.5251 10.2119 21.4824L12.9141 18.4991L16.9444 21.6211C17.2992 21.8974 17.7359 22.0475 18.1856 22.0479C18.6567 22.0473 19.1134 21.8847 19.479 21.5874C19.8445 21.2901 20.0968 20.8762 20.1934 20.4151L23.4561 4.39849C23.53 4.03801 23.5046 3.66421 23.3824 3.31708C23.2603 2.96995 23.0461 2.66255 22.7627 2.42778ZM9.86821 14.7364C9.72955 14.8745 9.63476 15.0505 9.59575 15.2422L9.28624 16.7462L8.50218 14.1532L12.5674 12.0362L9.86821 14.7364ZM18.17 20.0401L13.4073 16.3506C13.208 16.1966 12.9581 16.1234 12.7072 16.1455C12.4564 16.1675 12.223 16.2833 12.0537 16.4697L11.1883 17.4249L11.4942 15.9385L18.5772 8.85549C18.7462 8.68665 18.8492 8.46285 18.8675 8.22461C18.8858 7.98638 18.8182 7.74947 18.6769 7.55681C18.5356 7.36414 18.3299 7.22845 18.0972 7.17433C17.8645 7.1202 17.6201 7.15121 17.4082 7.26174L7.24296 12.5544L3.5186 11.1915L21.4971 3.99905L18.17 20.0401Z" fill="#8798A1"/>
</g>
</svg>
