<svg width="25" height="24" viewBox="0 0 25 24" fill="none" xmlns="http://www.w3.org/2000/svg">
<g id="Brands / twitter">
<path id="Vector" d="M23.4892 3.95021C23.4893 3.77357 23.4426 3.60007 23.3539 3.44735C23.2651 3.29464 23.1375 3.16817 22.984 3.08084C22.8304 2.9935 22.6565 2.94842 22.4799 2.95017C22.3032 2.95193 22.1302 3.00046 21.9785 3.09083C21.3932 3.43921 20.763 3.70601 20.1055 3.88383C19.1665 3.07806 17.9688 2.63713 16.7315 2.64164C15.3741 2.6432 14.0704 3.17223 13.0957 4.11702C12.121 5.06181 11.5517 6.3484 11.5078 7.70512C8.83183 7.27838 6.40648 5.88164 4.6943 3.78126C4.59113 3.65609 4.45938 3.55757 4.31016 3.494C4.16093 3.43043 3.99861 3.40368 3.83688 3.41601C3.67524 3.42932 3.51927 3.4818 3.38247 3.56892C3.24566 3.65603 3.13214 3.77516 3.05172 3.91601C2.63924 4.63582 2.40235 5.44276 2.36027 6.27131C2.31818 7.09986 2.4721 7.92666 2.80953 8.68456L2.80758 8.68651C2.65592 8.77991 2.53077 8.91066 2.44408 9.06625C2.35739 9.22185 2.31207 9.39708 2.31246 9.57519C2.31062 9.72211 2.31943 9.86898 2.33883 10.0146C2.44096 11.2729 2.99861 12.4507 3.90719 13.3271C3.84555 13.4446 3.80793 13.5731 3.79653 13.7052C3.78513 13.8373 3.80017 13.9704 3.84078 14.0967C4.23689 15.3308 5.07927 16.3727 6.20309 17.0185C5.06133 17.46 3.82851 17.614 2.61324 17.4668C2.38831 17.4386 2.16047 17.4876 1.96708 17.6059C1.7737 17.7242 1.62626 17.9047 1.54895 18.1178C1.47164 18.3309 1.46905 18.5639 1.5416 18.7787C1.61415 18.9935 1.75753 19.1772 1.94824 19.2998C4.03833 20.646 6.47191 21.3617 8.95801 21.3613C11.7773 21.393 14.528 20.4921 16.7822 18.7988C19.0365 17.1054 20.668 14.7145 21.4228 11.998C21.7759 10.8146 21.9561 9.58648 21.958 8.35157C21.958 8.28614 21.958 8.21876 21.957 8.15138C22.4791 7.58831 22.8836 6.92668 23.1467 6.20527C23.4098 5.48387 23.5262 4.7172 23.4892 3.95021ZM20.1826 7.16212C20.0174 7.35746 19.9338 7.60891 19.9492 7.86427C19.9589 8.02927 19.958 8.19527 19.958 8.35157C19.9559 9.39511 19.803 10.4329 19.5039 11.4326C18.8874 13.744 17.513 15.7817 15.601 17.2192C13.6889 18.6568 11.3497 19.4111 8.95801 19.3613C8.09888 19.3616 7.24272 19.2606 6.40723 19.0606C7.47264 18.7172 8.46882 18.1879 9.34961 17.4971C9.51183 17.3693 9.63056 17.1945 9.68949 16.9967C9.74843 16.7988 9.74469 16.5875 9.67878 16.3918C9.61287 16.1961 9.48803 16.0257 9.32139 15.9038C9.15474 15.7819 8.95445 15.7145 8.74801 15.7109C7.91684 15.698 7.12314 15.363 6.53414 14.7764C6.68356 14.7481 6.832 14.7129 6.97946 14.6709C7.19547 14.6094 7.3845 14.477 7.51612 14.295C7.64773 14.1131 7.71428 13.8921 7.70503 13.6677C7.69578 13.4433 7.61128 13.2285 7.46514 13.058C7.319 12.8874 7.11971 12.7711 6.89938 12.7275C6.41691 12.6323 5.96292 12.427 5.57269 12.1277C5.18246 11.8284 4.8665 11.4432 4.64938 11.002C4.8301 11.0266 5.01199 11.0419 5.1943 11.0479C5.41088 11.0511 5.62289 10.9854 5.79967 10.8603C5.97645 10.7351 6.10884 10.5569 6.1777 10.3516C6.24367 10.1443 6.24028 9.92123 6.16803 9.7161C6.09577 9.51096 5.9586 9.33499 5.77731 9.21485C5.33745 8.92182 4.97715 8.52427 4.72866 8.0578C4.48017 7.59134 4.35126 7.07052 4.35348 6.54201C4.35348 6.47561 4.35543 6.4092 4.35934 6.34377C6.6006 8.43402 9.50766 9.66621 12.5683 9.82326C12.7228 9.82934 12.8767 9.80024 13.0183 9.73816C13.1599 9.67607 13.2855 9.58262 13.3857 9.46486C13.4849 9.34596 13.5551 9.20566 13.5909 9.05501C13.6266 8.90437 13.6269 8.74748 13.5917 8.5967C13.5345 8.35806 13.5054 8.11357 13.5048 7.86818C13.5057 7.01271 13.846 6.19254 14.4509 5.58764C15.0558 4.98274 15.8759 4.64251 16.7314 4.64161C17.1715 4.64043 17.6071 4.7305 18.0107 4.90615C18.4143 5.0818 18.777 5.3392 19.0761 5.66212C19.1915 5.7862 19.3366 5.87871 19.4978 5.93085C19.659 5.98299 19.8308 5.99303 19.997 5.96001C20.4078 5.88006 20.8127 5.7724 21.2089 5.63775C20.9387 6.19072 20.5933 6.70369 20.1826 7.16212Z" fill="#8798A1"/>
</g>
</svg>
